<?xml version="1.0" encoding="utf-8"?>
<!-- Generator: Adobe Illustrator 27.4.0, SVG Export Plug-In . SVG Version: 6.00 Build 0)  -->
<svg version="1.1" id="Layer_1" xmlns="http://www.w3.org/2000/svg" xmlns:xlink="http://www.w3.org/1999/xlink" x="0px" y="0px"
	 viewBox="0 0 343 52" style="enable-background:new 0 0 343 52;" xml:space="preserve">
<style type="text/css">
	.st0{fill:#FBB717;}
	.st1{fill:#5262AD;}
	.st2{fill:#BE3527;}
</style>
<path class="st0" d="M25.7,0.3C11.5,0.3,0,11.9,0,26.2C0,40.4,11.5,52,25.7,52s25.7-11.6,25.7-25.8C51.4,11.9,39.9,0.3,25.7,0.3z
	 M38.6,39.1c0.2,0,0.5,0,0.9-0.1c0.2-0.1,0.5-0.1,0.7-0.1c0.9,0,1.6,0.7,1.6,1.6c0,1.1-0.8,2-1.9,2c-0.6,0-1.3-0.1-2.2-0.3
	c-0.9-0.2-1.7-0.3-2.3-0.3c-0.7,0-1.4,0.1-2.1,0.3c-0.8,0.2-1.4,0.3-1.9,0.3c-0.9,0-1.6-0.8-1.6-1.8c0-1,0.6-1.7,1.7-1.7h0.6
	c0.1,0,0.2,0,0.4,0c0.9,0,1.2-0.6,1.3-2.2l0.1-2.1l0.1-4.2V12.3l-6.3,29.3c-0.2,0.9-0.8,1.3-2,1.3c-1.2,0-1.9-0.4-2-1.3l-6.4-28.9
	v17.5c0,7.7,0.1,8.8,1.4,8.8c0.2,0,0.5,0,0.8-0.1c0.2,0,0.4,0,0.6,0c1.1,0,1.6,0.6,1.6,1.7c0,1.1-0.6,1.9-1.7,1.9
	c-0.3,0-0.7-0.1-1.8-0.3c-0.8-0.2-1.6-0.3-2.3-0.3c-0.7,0-1.5,0.1-2.4,0.3c-0.9,0.2-1.7,0.3-2.2,0.3c-1.1,0-1.9-0.8-1.9-2
	c0-0.9,0.7-1.6,1.6-1.6c0.2,0,0.5,0,0.7,0.1c0.4,0,0.7,0.1,0.9,0.1c1.3,0,1.4-1,1.4-8.5v-9c0-7.5-0.1-8.5-1.4-8.5
	c-0.2,0-0.5,0-0.9,0.1c-0.2,0.1-0.5,0.1-0.7,0.1c-0.9,0-1.6-0.7-1.6-1.6c0-1.1,0.8-2,1.9-2c0.2,0,0.7,0,1.6,0.1
	c0.4,0.1,1,0.1,1.7,0.1c1,0,1.9,0,2.4-0.1c0.6-0.1,1.1-0.1,1.4-0.1c0.9,0,1.2,0.4,1.7,2.6L25.8,37l5.5-25.3c0.3-1.6,0.8-2.2,1.6-2.2
	c0.3,0,0.7,0.1,1.3,0.2c0.6,0.1,1.2,0.2,1.7,0.2c0.6,0,1.5-0.1,2.4-0.3c0.7-0.1,1.3-0.2,1.8-0.2c1.1,0,1.9,0.8,1.9,1.9
	c0,0.9-0.7,1.7-1.6,1.7c-0.2,0-0.5,0-0.7-0.1c-0.4-0.1-0.7-0.1-0.9-0.1c-1.2,0-1.4,1-1.4,8.6v9.3C37.2,38.1,37.4,39.1,38.6,39.1
	L38.6,39.1z"/>
<path class="st1" d="M90.6,12.7h-9.7c-1.7,0-2,0.3-2,2v7.4c0,1.7,0.3,2,2,2h9.7c1.7,0,1.9-0.3,1.9-2v-7.4
	C92.5,13,92.2,12.7,90.6,12.7z"/>
<path class="st1" d="M85.7,0.3C71.5,0.3,60,11.9,60,26.2C60,40.4,71.5,52,85.7,52c14.2,0,25.7-11.6,25.7-25.8
	C111.5,11.9,99.9,0.3,85.7,0.3z M95.8,25.4c0,1.5-0.4,2-2,2h-9.2c-1.7,0-2,0.3-2,2V41c0,1.8-0.3,2-1.9,2h-3.2c-1.7,0-2-0.1-2-2V11.4
	c0-1.5,0.4-2,2-2h16.3c1.5,0,2,0.4,2,2V25.4z"/>
<path d="M152,13.2l0.1,0.3c0.1-0.1,0.3-0.2,0.4-0.3C152.3,13.2,152.1,13.2,152,13.2z"/>
<path d="M158.1,25.4l0.2-0.4c-0.1-0.1-0.2-0.2-0.3-0.2c-0.1,0-0.2,0.1-0.3,0.2C157.7,25.3,157.9,25.4,158.1,25.4L158.1,25.4z"/>
<path d="M152.9,13.6l0.2-0.3l-0.4,0.2L152.9,13.6z"/>
<path d="M160.6,29.9c0.1,0,0.2,0.1,0.3,0.1c0.2,0,0.3-0.2,0.4-0.5c0.1-0.3,0.2-0.4,0.2-0.4l0-0.1c-0.1,0-0.1,0.1-0.2,0.1
	c-0.6,0.2-1,0.3-0.9,0.5l0,0.1L160.6,29.9L160.6,29.9z"/>
<path d="M160.6,29c0.2,0,0.3-0.2,0.5-0.4c0-0.2,0-0.4,0-0.7c0-0.2-0.1-0.4-0.2-0.6c-0.4,0.5-0.5,1-0.5,1.6
	C160.5,29,160.5,29,160.6,29z"/>
<path d="M159.1,31.7l0.8-0.3c0.1-0.4,0.2-0.9,0.3-1.2l-0.7,1l-0.3-0.2c-0.1,0.1-0.2,0.4-0.1,0.6L159.1,31.7L159.1,31.7z"/>
<path d="M154.3,10.9l0.3,0.2c0.1-0.2,0.2-0.4,0.1-0.6L154.3,10.9L154.3,10.9z"/>
<path class="st2" d="M162.2,6.4c0,0.6,0,0.8-0.4,0.8l-0.3,0.1c-1,1-2,1.8-3.1,2.4c-0.5,0.8-1,1.4-1.6,1.9c-0.1,0.1-0.2,0.2-0.3,0.2
	c-0.1,0-0.1,0-0.1-0.2s0-0.3,0-0.5c-0.5,0.5-1,1-1.4,1.4l0,0.1c0.1,0.4-0.1,0.7-0.6,0.8c-0.4-0.1-0.6-0.2-0.8-0.2
	c-0.2,0.3-0.4,0.7-0.5,1.1c-0.1,0.1-0.5,0.1-1,0.3c-0.3,0.5-0.6,0.8-1,0.8c-0.1,0-0.2,0-0.4,0c-0.4,0.4-0.7,0.6-1.2,0.7
	c0.2-0.4,0.4-0.7,0.5-1c0.2-0.1,0.3-0.2,0.2-0.5l0-0.1c-0.1,0-0.2,0-0.6,0.2c0.4-0.2,0.6-0.4,0.8-0.6c0,0.2,0,0.5,0,0.7
	c0,0.2,0.1,0.4,0.2,0.4c0.1,0,0.2-0.1,0.2-0.4l0.3-0.2c-0.1-0.2-0.2-0.3-0.3-0.3c-0.1,0-0.1,0.1-0.2,0.1l0.1-0.2l0.3-0.7
	c0.2-0.1,0.4-0.3,0.6-0.5c0-0.1,0.1-0.3,0-0.4c0-0.1-0.1-0.2-0.1-0.3c0.7-0.2,1.1-0.4,1.2-0.4c0.2,0,0.4,0,0.6,0.2
	c0.1-0.2,0.1-0.4,0.1-0.5c0-0.2-0.2-0.3-0.2-0.5c0-0.1,0-0.1,0-0.2c0.2,0,0.4-0.1,0.6-0.2c1-0.8,1.8-1.8,2.6-2.8
	c0.1,0.1,0.1,0.2,0.2,0.3c0,0.1,0,0.2-0.1,0.4c0.5-0.2,0.9-0.5,1.2-0.8l-0.4-0.2l-0.1-0.2c0.4-0.1,0.6-0.2,0.6-0.7
	c0.2-0.1,0.3-0.2,0.6-0.3c0.1-0.3,0.2-0.5,0.3-0.8l-0.2,0c-0.9,0.2-2.5,1.1-5.2,2c-1.1,0.6-1.7,0.9-1.8,1.3c-1.8,1.1-3.7,2.5-6,4.6
	c-3.2,2.6-5.1,7-4.7,8.7c0.1,0.3,0.2,0.6,0.2,0.7c-0.2,0-0.8-0.2-0.9-0.6c-0.1-0.6-0.2-1.3-0.3-2c-0.2,0.6-0.3,1.2-0.2,1.7
	c0.1,0.3,0.2,0.5,0.3,0.8c1.1,2,5.2,0.6,11.2,0.6c6,0,10.4-0.8,11.1,3.1c0.2,1-0.3,2-0.6,3.5c-1.2,0.8-1,1.6-1.3,2.2
	c-1.8,0.8-1.6,2.1-2.1,2.2c-0.1,0-0.1,0-0.2,0c-0.9,0.5-0.8,1.2-0.9,1.2c-0.1,0-0.2,0-0.3-0.1c-0.7,1.5-3,3-6.2,5.2
	c-3.7,2.5-8.5,6.3-16.1,9c3.4,1.6,7.2,2.6,11.2,2.6c14.2,0,25.7-11.6,25.7-25.8C171.5,18.2,167.9,11.1,162.2,6.4L162.2,6.4z
	 M155.6,8.5l0,0.2c0,0.1-0.2,0.1-0.3,0.2l-0.1,0L155.6,8.5L155.6,8.5z M151.1,12.6l0.3,0.2l-0.4,0.2L151.1,12.6L151.1,12.6z
	 M149.7,10.4l0-0.1c0.2-0.1,0.3-0.1,0.5-0.1l0.2,0l-0.1,0.4c-0.2,0.1-0.3,0.1-0.4,0.1c-0.2,0-0.2,0-0.2-0.1
	C149.6,10.5,149.6,10.5,149.7,10.4L149.7,10.4z M144.9,19.1c0.3-0.5,0.5-0.8,0.6-1.1l0,0.5l0.4-0.1
	C145.9,18.6,145.6,18.8,144.9,19.1z M146,17.9l0.2-0.3l0.3-0.1C146.4,17.7,146.2,17.8,146,17.9L146,17.9z M146.7,17.9
	c0.1-0.1,0.3-0.2,0.5-0.4l0.2,0.3L146.7,17.9L146.7,17.9z M147.6,17.6l0.1-0.6h-0.4l0.1-0.6c0.2,0.3,0.4,0.4,0.7,0.5l0,0.5
	L147.6,17.6z M148.5,17.1c0.1-0.2,0.2-0.3,0.2-0.4c0-0.2-0.2-0.2-0.4-0.2l-0.2-0.3c0.1-0.3,0.4-0.5,0.7-0.8
	c-0.1,0.2-0.1,0.3-0.1,0.4c0,0.1,0.1,0,0.1,0c0.1,0,0.3-0.1,0.5-0.4l0,0.6c-0.3,0.1-0.5,0.1-0.4,0.3c0,0.1,0.2,0.1,0.5,0.1
	C149.1,16.8,148.9,17.1,148.5,17.1L148.5,17.1z"/>
<path class="st2" d="M129.8,42.5l0-0.2c0.2-0.7,0.6-1.2,1.1-1.7c0.5-1,0.3-1.7,0.9-1.8c0.2,0,0.4,0.1,0.4,0.2c0,0.2-0.1,0.4-0.3,0.6
	c-0.2,0.5-0.5,1.2-0.8,1.9c0.1,2.6-0.2,2.8-0.1,3.2l0,0c0.4,0.5,0.9,0.9,1.5,0.8c0.3-0.1,0.8,0.6,1.8,0.2c7.9-4.3,11.8-6.6,11.7-6.9
	l0-0.1l0.3-0.1l0.3-0.1c0.4-0.2,0.5-0.4,0.5-0.7c0-0.1-0.1-0.1-0.1-0.2c0.2,0,0.4,0,0.6,0c0.2,0,0.4-0.2,0.5-0.4
	c0.4-0.3,0.8-0.5,1.2-0.7c0.7-1.1,3.6-3,6.9-7.6l0.3-0.2c0.1-0.3,0.2-0.6,0.3-0.8c0.2-0.1,0.3-0.2,0.5-0.5c0-0.2,0-0.5-0.1-0.7
	c-0.4-2-2.4-1.8-6-1.8c-7.1,0.1-13.4,0-13.9-3.1l0-0.2c-0.1,0.1-0.1,0.2-0.3,0.2c-0.1,0-0.1,0-0.1-0.2c0-0.1,0-0.2,0-0.2
	c0.3-2.3,0-3.5,0.6-3.6c-0.1-0.9,0.7-0.6,1.7-1.1c-0.1-0.1-0.3-0.1-0.3-0.1c0,0-0.1,0-0.1,0.1c0-1.2,2.4-4.3,3.5-4.5
	c0.1-0.6,0.3-1,0.7-1.3l0,0.4c0.1,0,0.2,0,0.3,0c0.3-0.1,0.5-0.2,0.7-0.5l0.4-0.2c0.1-0.4,0.1-0.8,0.4-1.3c0.3,0,0.6,0.1,0.8,0.2
	l0.1,0c0.7-0.1,1.3-0.9,2.4-1.8c0.7-0.1,1-0.1,1-0.1c1.4-1,2.6-1.9,3.7-2.5c0.5-1,1.2-0.9,2.3-1.2l0.1-0.3c0.6-0.5,1.1-0.9,1.6-1.1
	c-3.4-1.6-7.1-2.5-11.1-2.5c-14.2,0-25.7,11.6-25.7,25.8c0,7.9,3.5,15,9.1,19.7c0-0.7,0.2-1.5,0.4-2.5
	C129.8,43.1,129.9,42.9,129.8,42.5L129.8,42.5z"/>
<path d="M161.2,27.4l0.6,0.1l0-0.2c-0.1-0.3-0.2-0.4-0.6-0.6c0,0.1,0,0.2,0,0.4L161.2,27.4L161.2,27.4z"/>
<path d="M143,12l-0.2,0.6l0.5-0.3L143,12z"/>
<path d="M153.6,34.1l-0.3,0.1l-0.1,0.4l0.5-0.1L153.6,34.1z"/>
<path d="M159,4C159,4,159.1,4.1,159,4C159.1,4.1,159.1,4.1,159,4z"/>
<path d="M146,41.3l0.6-0.2l0.1-0.3l-0.5,0.1L146,41.3z"/>
<path d="M214.6,11v16H213V14.3l-5.7,12.8h-1.2l-5.7-12.7v12.7h-1.6V11h1.7l6.2,13.9l6.2-13.9H214.6z"/>
<path d="M220.4,10.8h-1.6v16.2h1.6V10.8z"/>
<path d="M236.7,27.1h-1.6l-8.9-13.7v13.7h-1.6V10.8h1.6l8.9,13.6V10.8h1.6V27.1z"/>
<path d="M253,27.1h-1.6l-8.9-13.7v13.7h-1.6V10.8h1.6l8.9,13.6V10.8h1.6V27.1z"/>
<path d="M258.8,12.2v6.1h6.1v1.3h-6.1v6.2h6.8v1.4h-8.4V10.8h8.4v1.3H258.8z"/>
<path d="M278.1,21.9l-3.2-8.8l-3.2,8.8H278.1L278.1,21.9z M278.6,23.2h-7.3l-1.4,3.9h-1.7l5.9-16h1.8l5.9,16H280L278.6,23.2z"/>
<path d="M293.4,15.5c0-1.1-0.3-1.9-0.9-2.5c-0.6-0.6-1.6-0.8-2.9-0.8h-3.3v6.5h3.3C292.2,18.8,293.4,17.7,293.4,15.5z M293.7,18.9
	c-0.9,0.9-2.3,1.3-4.1,1.3h-3.3v6.9h-1.6V10.8h4.9c1.8,0,3.2,0.4,4.1,1.3c0.9,0.9,1.4,2,1.4,3.4S294.6,18,293.7,18.9z"/>
<path d="M308.7,25c1-0.6,1.7-1.4,2.3-2.4c0.6-1,0.8-2.3,0.8-3.6c0-1.4-0.3-2.6-0.8-3.6c-0.6-1-1.3-1.8-2.3-2.4c-1-0.6-2-0.8-3.2-0.8
	c-1.2,0-2.3,0.3-3.2,0.8c-1,0.6-1.7,1.4-2.3,2.4c-0.6,1-0.8,2.2-0.8,3.6c0,1.4,0.3,2.6,0.8,3.6c0.6,1,1.3,1.8,2.3,2.4
	c1,0.6,2,0.8,3.2,0.8C306.7,25.8,307.8,25.5,308.7,25z M301.4,26.2c-1.2-0.7-2.2-1.7-2.9-3c-0.7-1.3-1.1-2.7-1.1-4.3
	c0-1.6,0.4-3,1.1-4.3c0.7-1.3,1.7-2.2,2.9-3c1.2-0.7,2.6-1.1,4.1-1.1c1.5,0,2.9,0.4,4.1,1.1c1.2,0.7,2.2,1.7,2.9,3
	c0.7,1.3,1,2.7,1,4.3c0,1.6-0.3,3-1,4.3c-0.7,1.3-1.6,2.2-2.9,3c-1.2,0.7-2.6,1.1-4.1,1.1C304,27.2,302.6,26.9,301.4,26.2z"/>
<path d="M318.5,25.7h5.8v1.3h-7.4V10.8h1.6V25.7z"/>
<path d="M328.7,10.8h-1.6v16.2h1.6V10.8z"/>
<path d="M334.9,26.7c-0.8-0.4-1.4-0.9-1.9-1.6c-0.5-0.7-0.7-1.4-0.7-2.2h1.7c0.1,0.8,0.4,1.5,1,2.1c0.6,0.6,1.5,0.9,2.7,0.9
	c1.1,0,2-0.3,2.6-0.8c0.6-0.6,1-1.3,1-2.1c0-0.7-0.2-1.3-0.5-1.7c-0.4-0.4-0.8-0.7-1.3-1c-0.5-0.2-1.2-0.4-2.2-0.7
	c-1.1-0.3-1.9-0.6-2.6-0.9c-0.6-0.3-1.2-0.7-1.6-1.3c-0.4-0.6-0.7-1.4-0.7-2.4c0-0.8,0.2-1.6,0.6-2.2c0.4-0.7,1-1.2,1.8-1.5
	c0.8-0.4,1.7-0.6,2.7-0.6c1.5,0,2.7,0.4,3.6,1.1c0.9,0.7,1.4,1.7,1.6,2.8h-1.8c-0.1-0.7-0.5-1.3-1.1-1.8c-0.6-0.5-1.4-0.8-2.5-0.8
	c-1,0-1.8,0.3-2.4,0.8c-0.6,0.5-1,1.2-1,2.1c0,0.7,0.2,1.2,0.5,1.6c0.4,0.4,0.8,0.7,1.3,1c0.5,0.2,1.3,0.4,2.2,0.7
	c1,0.3,1.9,0.6,2.5,0.9c0.6,0.3,1.2,0.7,1.6,1.3c0.4,0.6,0.7,1.4,0.7,2.4c0,0.8-0.2,1.5-0.6,2.2c-0.4,0.7-1,1.2-1.8,1.6
	c-0.8,0.4-1.7,0.6-2.8,0.6C336.6,27.2,335.7,27,334.9,26.7"/>
<path d="M199.7,32.7h2.4c1,0,1.7,0.2,2.2,0.6c0.4,0.4,0.7,1,0.7,1.8c0,1.6-0.9,2.4-2.8,2.4h-2.4L199.7,32.7L199.7,32.7z M202.1,31.5
	h-3.8v12.4h1.3v-5.3h2.4c1.4,0,2.4-0.3,3.2-1c0.7-0.7,1.1-1.5,1.1-2.6c0-1.1-0.4-2-1.1-2.6C204.5,31.8,203.5,31.5,202.1,31.5z"/>
<path d="M216.2,39.3c0,1.2-0.3,2.1-0.8,2.7c-0.6,0.6-1.3,0.9-2.3,0.9c-1,0-1.8-0.3-2.3-0.9c-0.6-0.6-0.9-1.5-0.9-2.7v-7.8h-1.3v7.8
	c0,1.6,0.4,2.8,1.3,3.6c0.8,0.8,1.9,1.2,3.3,1.2c1.3,0,2.4-0.4,3.3-1.2c0.8-0.8,1.3-2,1.3-3.6v-7.8h-1.3V39.3z"/>
<path d="M221.9,38.1h2.8c0.9,0,1.6,0.2,2.1,0.6c0.5,0.4,0.8,1,0.8,1.7s-0.2,1.3-0.7,1.7c-0.5,0.4-1.2,0.6-2,0.6h-2.9V38.1z
	 M226.6,36.4c-0.4,0.4-1.1,0.6-1.9,0.6h-2.8v-4.3h2.8c0.8,0,1.5,0.2,1.9,0.6c0.4,0.4,0.7,0.9,0.7,1.6C227.2,35.4,227,36,226.6,36.4z
	 M226.6,37.5c0.6-0.2,1-0.5,1.4-0.9c0.4-0.5,0.6-1.1,0.6-1.9c0-0.9-0.3-1.7-1-2.3c-0.7-0.6-1.6-0.9-2.9-0.9h-4.2v12.4h4.3
	c0.8,0,1.6-0.1,2.2-0.4c0.6-0.3,1.1-0.7,1.4-1.2c0.3-0.5,0.5-1.1,0.5-1.7c0-0.8-0.2-1.5-0.7-2C227.7,38,227.2,37.7,226.6,37.5"/>
<path d="M232.7,31.5h-1.3v12.4h5.8v-1.1h-4.4V31.5z"/>
<path d="M240.5,31.5h-1.3v12.4h1.3V31.5z"/>
<path d="M253.2,40.3c-0.3,0.8-0.9,1.4-1.6,1.9c-0.7,0.5-1.6,0.7-2.6,0.7c-0.9,0-1.7-0.2-2.4-0.6c-0.7-0.4-1.3-1-1.7-1.8
	c-0.4-0.8-0.6-1.7-0.6-2.7s0.2-2,0.6-2.7c0.4-0.8,1-1.4,1.7-1.8c0.7-0.4,1.5-0.6,2.4-0.6c1,0,1.9,0.2,2.6,0.7
	c0.7,0.5,1.2,1.1,1.6,1.9l0,0h1.6l0-0.1c-0.4-1.2-1.2-2.1-2.2-2.8c-1-0.7-2.2-1-3.6-1c-1.1,0-2.2,0.3-3.1,0.8
	c-0.9,0.5-1.7,1.3-2.2,2.3c-0.5,1-0.8,2.1-0.8,3.3s0.3,2.3,0.8,3.3c0.5,1,1.3,1.7,2.2,2.3c0.9,0.5,2,0.8,3.1,0.8
	c1.4,0,2.6-0.3,3.5-1c1-0.7,1.7-1.6,2.2-2.8l0-0.1L253.2,40.3L253.2,40.3z"/>
<path d="M268.5,37.8c-0.5-0.2-1.1-0.4-1.9-0.7c-0.7-0.2-1.2-0.4-1.6-0.5c-0.4-0.2-0.7-0.4-1-0.7c-0.3-0.3-0.4-0.7-0.4-1.2
	c0-0.7,0.2-1.2,0.7-1.6c0.5-0.4,1.1-0.6,1.8-0.6c0.8,0,1.4,0.2,1.9,0.6c0.5,0.4,0.7,0.8,0.8,1.3l0,0h1.4v-0.1
	c-0.1-0.9-0.5-1.6-1.2-2.2c-0.7-0.6-1.6-0.8-2.8-0.8c-0.8,0-1.5,0.1-2.1,0.4c-0.6,0.3-1.1,0.7-1.4,1.2c-0.3,0.5-0.5,1.1-0.5,1.7
	c0,0.8,0.2,1.4,0.5,1.9c0.3,0.5,0.8,0.8,1.3,1c0.5,0.2,1.1,0.4,2,0.7c0.7,0.2,1.3,0.4,1.6,0.5c0.4,0.2,0.7,0.4,1,0.7
	c0.3,0.3,0.4,0.7,0.4,1.2c0,0.6-0.2,1.2-0.7,1.6c-0.5,0.4-1.1,0.6-1.9,0.6c-0.9,0-1.6-0.2-2-0.7c-0.5-0.4-0.7-1-0.8-1.5v-0.1h-1.4
	v0.1c0,0.6,0.2,1.2,0.6,1.7c0.4,0.5,0.9,0.9,1.5,1.2c0.6,0.3,1.3,0.4,2.2,0.4c0.8,0,1.6-0.2,2.2-0.5s1.1-0.8,1.4-1.3
	c0.3-0.5,0.5-1.1,0.5-1.7c0-0.8-0.2-1.4-0.5-1.8C269.5,38.3,269,38,268.5,37.8"/>
<path d="M282.6,40.3c-0.3,0.8-0.9,1.4-1.6,1.9c-0.7,0.5-1.6,0.7-2.6,0.7c-0.9,0-1.7-0.2-2.4-0.6c-0.7-0.4-1.3-1-1.7-1.8
	c-0.4-0.8-0.6-1.7-0.6-2.7s0.2-2,0.6-2.7c0.4-0.8,1-1.4,1.7-1.8c0.7-0.4,1.5-0.6,2.4-0.6c1,0,1.9,0.2,2.6,0.7
	c0.7,0.5,1.2,1.1,1.6,1.9l0,0h1.6l0-0.1c-0.4-1.2-1.2-2.1-2.2-2.8c-1-0.7-2.2-1-3.6-1c-1.1,0-2.2,0.3-3.1,0.8
	c-0.9,0.5-1.7,1.3-2.2,2.3c-0.5,1-0.8,2.1-0.8,3.3s0.3,2.3,0.8,3.3c0.5,1,1.3,1.7,2.2,2.3c0.9,0.5,2,0.8,3.1,0.8
	c1.4,0,2.6-0.3,3.5-1c1-0.7,1.7-1.6,2.2-2.8l0-0.1L282.6,40.3L282.6,40.3z"/>
<path d="M294.7,37h-6.5v-5.5h-1.3v12.4h1.3v-5.8h6.5v5.8h1.3V31.5h-1.3V37z"/>
<path d="M304.7,42.9c-0.9,0-1.7-0.2-2.4-0.6c-0.7-0.4-1.3-1-1.7-1.8c-0.4-0.8-0.6-1.7-0.6-2.7c0-1,0.2-2,0.6-2.7
	c0.4-0.8,1-1.4,1.7-1.8c0.7-0.4,1.5-0.6,2.4-0.6s1.7,0.2,2.4,0.6c0.7,0.4,1.3,1,1.7,1.8c0.4,0.8,0.6,1.7,0.6,2.7c0,1-0.2,2-0.6,2.7
	c-0.4,0.8-1,1.4-1.7,1.8C306.4,42.7,305.6,42.9,304.7,42.9z M307.8,32.2c-0.9-0.5-2-0.8-3.1-0.8s-2.2,0.3-3.1,0.8
	c-0.9,0.5-1.7,1.3-2.2,2.3c-0.5,1-0.8,2.1-0.8,3.3s0.3,2.3,0.8,3.3c0.5,1,1.3,1.7,2.2,2.3c0.9,0.5,2,0.8,3.1,0.8s2.2-0.3,3.1-0.8
	c0.9-0.5,1.7-1.3,2.2-2.3c0.5-1,0.8-2.1,0.8-3.3s-0.3-2.3-0.8-3.3C309.5,33.5,308.7,32.7,307.8,32.2z"/>
<path d="M318.9,42.9c-0.9,0-1.7-0.2-2.4-0.6c-0.7-0.4-1.3-1-1.7-1.8c-0.4-0.8-0.6-1.7-0.6-2.7c0-1,0.2-2,0.6-2.7
	c0.4-0.8,1-1.4,1.7-1.8c0.7-0.4,1.5-0.6,2.4-0.6c0.9,0,1.7,0.2,2.4,0.6c0.7,0.4,1.3,1,1.7,1.8c0.4,0.8,0.6,1.7,0.6,2.7
	c0,1-0.2,2-0.6,2.7c-0.4,0.8-1,1.4-1.7,1.8C320.6,42.7,319.8,42.9,318.9,42.9z M322,32.2c-0.9-0.5-2-0.8-3.1-0.8
	c-1.2,0-2.2,0.3-3.1,0.8c-0.9,0.5-1.7,1.3-2.2,2.3c-0.5,1-0.8,2.1-0.8,3.3s0.3,2.3,0.8,3.3c0.5,1,1.3,1.7,2.2,2.3
	c0.9,0.5,2,0.8,3.1,0.8s2.2-0.3,3.1-0.8c0.9-0.5,1.7-1.3,2.2-2.3c0.5-1,0.8-2.1,0.8-3.3s-0.3-2.3-0.8-3.3
	C323.7,33.5,322.9,32.7,322,32.2z"/>
<path d="M328.8,31.5h-1.3v12.4h5.8v-1.1h-4.4V31.5z"/>
<path d="M342.5,38.8c-0.3-0.5-0.8-0.8-1.3-1c-0.5-0.2-1.1-0.4-1.9-0.7c-0.7-0.2-1.2-0.4-1.6-0.5c-0.4-0.2-0.7-0.4-1-0.7
	c-0.3-0.3-0.4-0.7-0.4-1.2c0-0.7,0.2-1.2,0.7-1.6c0.5-0.4,1.1-0.6,1.8-0.6c0.8,0,1.4,0.2,1.9,0.6c0.5,0.4,0.7,0.8,0.8,1.3l0,0h1.4
	v-0.1c-0.1-0.9-0.5-1.6-1.2-2.2c-0.7-0.6-1.6-0.8-2.8-0.8c-0.8,0-1.5,0.1-2.1,0.4c-0.6,0.3-1.1,0.7-1.4,1.2
	c-0.3,0.5-0.5,1.1-0.5,1.7c0,0.8,0.2,1.4,0.5,1.9c0.3,0.5,0.8,0.8,1.2,1c0.5,0.2,1.1,0.4,2,0.7c0.7,0.2,1.3,0.4,1.6,0.5
	c0.4,0.2,0.7,0.4,1,0.7c0.3,0.3,0.4,0.7,0.4,1.2c0,0.6-0.2,1.2-0.7,1.6c-0.5,0.4-1.1,0.6-1.9,0.6c-0.9,0-1.6-0.2-2-0.7
	c-0.5-0.4-0.7-1-0.8-1.5v-0.1h-1.4v0.1c0,0.6,0.2,1.2,0.6,1.7c0.4,0.5,0.9,0.9,1.5,1.2c0.6,0.3,1.3,0.4,2.2,0.4
	c0.8,0,1.6-0.2,2.2-0.5c0.6-0.3,1.1-0.8,1.4-1.3c0.3-0.5,0.5-1.1,0.5-1.7C343,39.9,342.8,39.3,342.5,38.8z"/>
<path d="M188.9,0h-1.4v51.3h1.4V0z"/>
</svg>
